<?xml version="1.0" standalone="no"?>
<!DOCTYPE svg PUBLIC "-//W3C//DTD SVG 1.1//EN" "http://www.w3.org/Graphics/SVG/1.1/DTD/svg11.dtd" >
<svg>
<metadata>
Created by FontForge 20110222 at Mon Mar  7 13:17:48 2011
 By www-data
Copyright max 2009
</metadata>
<defs>
<font id="The-One-True-Font-System-8x12" horiz-adv-x="512" >
  <font-face 
    font-family="The One True Font (System 8x12)"
    font-weight="400"
    font-stretch="normal"
    units-per-em="1024"
    panose-1="0 0 4 0 0 0 0 0 0 0"
    ascent="819"
    descent="-205"
    x-height="448"
    cap-height="640"
    bbox="0 -64 512 704"
    underline-thickness="51"
    underline-position="127"
    unicode-range="U+0020-201D"
  />
    <missing-glyph />
    <glyph glyph-name="space" unicode=" " 
 />
    <glyph glyph-name="exclam" unicode="!" 
d="M128 64v128h128v-128h-128zM128 256v128h-64v192h64v64h128v-64h64v-192h-64v-128h-128z" />
    <glyph glyph-name="quotedbl" unicode="&#x22;" 
d="M128 384v64h-64v192h128v-256h-64zM320 384v256h128v-192h-64v-64h-64z" />
    <glyph glyph-name="numbersign" unicode="#" 
d="M256 256v192h-64v-192h64zM64 64v128h-64v64h64v192h-64v64h64v128h128v-128h64v128h128v-128h64v-64h-64v-192h64v-64h-64v-128h-128v128h-64v-128h-128z" />
    <glyph glyph-name="dollar" unicode="$" 
d="M128 0v128h-128v64h256v128h-192v64h-64v128h64v64h64v128h128v-128h128v-64h-256v-128h192v-64h64v-128h-64v-64h-64v-128h-128z" />
    <glyph glyph-name="percent" unicode="%" 
d="M256 64v128h128v-128h-128zM0 384v128h128v-128h-128zM0 64v128h64v64h64v64h64v64h64v64h64v64h64v-128h-64v-64h-64v-64h-64v-64h-64v-64h-64v-64h-64z" />
    <glyph glyph-name="ampersand" unicode="&#x26;" 
d="M192 128v64h64v64h-64v64h-64v-192h64zM192 448v128h-64v-128h64zM64 64v64h-64v256h64v64h-64v128h64v64h192v-64h64v-128h-64v-64h64v-64h64v64h64v-192h-64v-64h64v-64h-128v64h-64v-64h-192z" />
    <glyph glyph-name="quotesingle" unicode="'" 
d="M64 384v64h64v192h128v-192h-64v-64h-128z" />
    <glyph glyph-name="parenleft" unicode="(" 
d="M256 64v64h-64v64h-64v64h-64v192h64v64h64v64h64v64h128v-64h-64v-64h-64v-64h-64v-192h64v-64h64v-64h64v-64h-128z" />
    <glyph glyph-name="parenright" unicode=")" 
d="M64 64v64h64v64h64v64h64v192h-64v64h-64v64h-64v64h128v-64h64v-64h64v-64h64v-192h-64v-64h-64v-64h-64v-64h-128z" />
    <glyph glyph-name="asterisk" unicode="*" 
d="M64 192v64h64v64h-128v64h128v64h-64v64h128v-64h128v64h128v-64h-64v-64h128v-64h-128v-64h64v-64h-128v64h-128v-64h-128z" />
    <glyph glyph-name="plus" unicode="+" 
d="M192 192v128h-128v64h128v128h128v-128h128v-64h-128v-128h-128z" />
    <glyph glyph-name="comma" unicode="," 
d="M64 0v64h64v128h192v-128h-128v-64h-128z" />
    <glyph glyph-name="hyphen" unicode="-" 
d="M0 320v64h448v-64h-448z" />
    <glyph glyph-name="period" unicode="." 
d="M128 64v128h192v-128h-192z" />
    <glyph glyph-name="slash" unicode="/" 
d="M0 64v128h64v64h64v64h64v64h64v64h64v64h64v64h64v-128h-64v-64h-64v-64h-64v-64h-64v-64h-64v-64h-64v-64h-64z" />
    <glyph glyph-name="zero" unicode="0" 
d="M320 128v256h-64v-128h-64v-64h-64v-64h192zM192 320v128h64v64h64v64h-192v-256h64zM64 64v64h-64v448h64v64h320v-64h64v-448h-64v-64h-320z" />
    <glyph glyph-name="one" unicode="1" 
d="M0 64v64h128v320h-128v64h128v64h64v64h64v-512h128v-64h-384z" />
    <glyph glyph-name="two" unicode="2" 
d="M0 64v128h64v64h64v64h64v64h64v192h-128v-128h-128v128h64v64h256v-64h64v-192h-64v-64h-64v-64h-64v-64h-64v-64h128v64h128v-128h-384z" />
    <glyph glyph-name="three" unicode="3" 
d="M64 64v64h-64v64h128v-64h128v192h-128v64h128v192h-128v-64h-128v64h64v64h256v-64h64v-192h-64v-64h64v-192h-64v-64h-256z" />
    <glyph glyph-name="four" unicode="4" 
d="M256 320v128h-64v-64h-64v-64h128zM192 64v64h64v128h-256v128h64v64h64v64h64v64h64v64h128v-320h64v-64h-64v-128h64v-64h-256z" />
    <glyph glyph-name="five" unicode="5" 
d="M64 64v64h-64v64h128v-64h128v256h-128v-64h-128v320h384v-64h-256v-128h192v-64h64v-256h-64v-64h-256z" />
    <glyph glyph-name="six" unicode="6" 
d="M256 128v192h-128v-192h128zM64 64v64h-64v384h64v64h64v64h192v-64h-128v-64h-64v-128h192v-64h64v-192h-64v-64h-256z" />
    <glyph glyph-name="seven" unicode="7" 
d="M64 64v192h128v-192h-128zM192 256v64h64v64h64v192h-192v-128h-128v192h448v-256h-64v-64h-64v-64h-128z" />
    <glyph glyph-name="eight" unicode="8" 
d="M256 128v192h-128v-192h128zM256 384v192h-128v-192h128zM64 64v64h-64v192h64v64h-64v192h64v64h256v-64h64v-192h-64v-64h64v-192h-64v-64h-256z" />
    <glyph glyph-name="nine" unicode="9" 
d="M256 384v192h-128v-192h128zM64 64v64h64v64h64v128h-128v64h-64v192h64v64h256v-64h64v-256h-64v-128h-64v-128h-192z" />
    <glyph glyph-name="colon" unicode=":" 
d="M128 128v128h192v-128h-192zM128 384v128h192v-128h-192z" />
    <glyph glyph-name="semicolon" unicode=";" 
d="M128 0v64h64v64h-64v128h192v-192h-64v-64h-128zM128 384v128h192v-128h-192z" />
    <glyph glyph-name="less" unicode="&#x3c;" 
d="M256 64v64h-64v64h-64v64h-64v64h-64v64h64v64h64v64h64v64h64v64h128v-64h-64v-64h-64v-64h-64v-64h-64v-64h64v-64h64v-64h64v-64h64v-64h-128z" />
    <glyph glyph-name="equal" unicode="=" 
d="M64 256v64h384v-64h-384zM64 384v64h384v-64h-384z" />
    <glyph glyph-name="greater" unicode="&#x3e;" 
d="M64 64v64h64v64h64v64h64v64h64v64h-64v64h-64v64h-64v64h-64v64h128v-64h64v-64h64v-64h64v-64h64v-64h-64v-64h-64v-64h-64v-64h-64v-64h-128z" />
    <glyph glyph-name="question" unicode="?" 
d="M128 64v128h128v-128h-128zM128 256v128h64v64h64v128h-128v-64h-128v64h64v64h256v-64h64v-128h-64v-64h-64v-128h-128z" />
    <glyph glyph-name="at" unicode="@" 
d="M64 64v64h-64v448h64v64h320v-64h64v-320h-256v192h128v128h-192v-448h256v-64h-320z" />
    <glyph glyph-name="A" unicode="A" 
d="M256 320v192h-128v-192h128zM0 64v448h64v64h64v64h128v-64h64v-64h64v-448h-128v192h-128v-192h-128z" />
    <glyph glyph-name="B" unicode="B" 
d="M320 128v192h-128v-192h128zM320 384v192h-128v-192h128zM0 64v64h64v448h-64v64h384v-64h64v-192h-64v-64h64v-192h-64v-64h-384z" />
    <glyph glyph-name="C" unicode="C" 
d="M128 64v64h-64v64h-64v320h64v64h64v64h256v-64h64v-128h-128v128h-128v-64h-64v-320h64v-64h128v128h128v-128h-64v-64h-256z" />
    <glyph glyph-name="D" unicode="D" 
d="M256 128v64h64v320h-64v64h-64v-448h64zM0 64v64h64v448h-64v64h320v-64h64v-64h64v-320h-64v-64h-64v-64h-320z" />
    <glyph glyph-name="E" unicode="E" 
d="M0 64v64h64v448h-64v64h448v-128h-64v64h-192v-192h128v64h64v-192h-64v64h-128v-192h192v64h64v-128h-448z" />
    <glyph glyph-name="F" unicode="F" 
d="M0 64v64h64v448h-64v64h448v-128h-64v64h-192v-192h128v64h64v-192h-64v64h-128v-192h64v-64h-256z" />
    <glyph glyph-name="G" unicode="G" 
d="M128 64v64h-64v64h-64v320h64v64h64v64h256v-64h64v-128h-128v128h-128v-64h-64v-320h64v-64h128v128h-64v64h192v-256h-320z" />
    <glyph glyph-name="H" unicode="H" 
d="M0 64v576h128v-256h128v256h128v-576h-128v256h-128v-256h-128z" />
    <glyph glyph-name="I" unicode="I" 
d="M64 64v64h64v448h-64v64h256v-64h-64v-448h64v-64h-256z" />
    <glyph glyph-name="J" unicode="J" 
d="M64 64v64h-64v192h128v-192h128v448h-64v64h256v-64h-64v-448h-64v-64h-256z" />
    <glyph glyph-name="K" unicode="K" 
d="M0 64v64h64v448h-64v64h192v-256h64v128h64v128h128v-128h-64v-128h-64v-64h64v-128h64v-128h-128v128h-64v128h-64v-256h-192z" />
    <glyph glyph-name="L" unicode="L" 
d="M0 64v64h64v448h-64v64h256v-64h-64v-448h128v128h64v64h64v-256h-448z" />
    <glyph glyph-name="M" unicode="M" 
d="M0 64v576h128v-64h64v-64h64v64h64v64h128v-576h-128v320h-64v-64h-64v64h-64v-320h-128z" />
    <glyph glyph-name="N" unicode="N" 
d="M0 64v576h128v-128h64v-64h64v-64h64v256h128v-576h-128v128h-64v64h-64v64h-64v-256h-128z" />
    <glyph glyph-name="O" unicode="O" 
d="M256 128v64h64v320h-64v64h-64v-64h-64v-320h64v-64h64zM128 64v64h-64v64h-64v320h64v64h64v64h192v-64h64v-64h64v-320h-64v-64h-64v-64h-192z" />
    <glyph glyph-name="P" unicode="P" 
d="M320 384v192h-128v-192h128zM0 64v64h64v448h-64v64h384v-64h64v-192h-64v-64h-192v-192h64v-64h-256z" />
    <glyph glyph-name="Q" unicode="Q" 
d="M192 192v64h64v64h64v192h-64v64h-64v-64h-64v-320h64zM192 0v64h64v64h-192v64h-64v320h64v64h64v64h192v-64h64v-64h64v-320h-64v-128h64v-64h-256z" />
    <glyph glyph-name="R" unicode="R" 
d="M320 384v192h-128v-192h128zM0 64v64h64v448h-64v64h384v-64h64v-192h-64v-128h64v-192h-128v192h-64v64h-64v-256h-192z" />
    <glyph glyph-name="S" unicode="S" 
d="M64 64v64h-64v128h128v-128h128v128h-64v64h-128v64h-64v192h64v64h256v-64h64v-128h-128v128h-128v-192h128v-64h64v-64h64v-128h-64v-64h-256z" />
    <glyph glyph-name="T" unicode="T" 
d="M64 64v64h64v448h-64v-64h-64v128h384v-128h-64v64h-64v-448h64v-64h-256z" />
    <glyph glyph-name="U" unicode="U" 
d="M64 64v64h-64v512h128v-512h128v512h128v-512h-64v-64h-256z" />
    <glyph glyph-name="V" unicode="V" 
d="M128 64v64h-64v64h-64v448h128v-448h128v448h128v-448h-64v-64h-64v-64h-128z" />
    <glyph glyph-name="W" unicode="W" 
d="M192 256v128h64v-128h-64zM64 64v192h-64v384h128v-384h64v-192h-128zM256 64v192h64v384h128v-384h-64v-192h-128z" />
    <glyph glyph-name="X" unicode="X" 
d="M0 64v192h64v64h64v64h-64v64h-64v192h128v-192h128v192h128v-192h-64v-64h-64v-64h64v-64h64v-192h-128v192h-128v-192h-128z" />
    <glyph glyph-name="Y" unicode="Y" 
d="M64 64v64h64v192h-64v64h-64v256h128v-256h128v256h128v-256h-64v-64h-64v-192h64v-64h-256z" />
    <glyph glyph-name="Z" unicode="Z" 
d="M0 64v128h64v128h64v64h64v128h64v64h-128v-64h-64v-64h-64v192h448v-128h-128v-128h-64v-64h-64v-128h-64v-64h192v64h64v64h64v-192h-448z" />
    <glyph glyph-name="bracketleft" unicode="[" 
d="M128 64v576h256v-64h-128v-448h128v-64h-256z" />
    <glyph glyph-name="backslash" unicode="\" 
d="M384 64v64h-64v64h-64v64h-64v64h-64v64h-64v64h-64v128h64v-64h64v-64h64v-64h64v-64h64v-64h64v-64h64v-128h-64z" />
    <glyph glyph-name="bracketright" unicode="]" 
d="M128 64v64h128v448h-128v64h256v-576h-256z" />
    <glyph glyph-name="asciicircum" unicode="^" 
d="M0 448v64h64v64h64v64h64v64h64v-64h64v-64h64v-64h64v-64h-128v64h-64v64h-64v-64h-64v-64h-128z" />
    <glyph glyph-name="underscore" unicode="_" 
d="M0 -64v64h512v-64h-512z" />
    <glyph glyph-name="grave" unicode="`" 
d="M192 512v64h-64v128h128v-128h64v-64h-128z" />
    <glyph glyph-name="a" unicode="a" 
d="M64 64v64h-64v128h64v64h192v64h-192v64h256v-64h64v-256h64v-64h-128v64h-64v128h-128v-128h128v-64h-192z" />
    <glyph glyph-name="b" unicode="b" 
d="M0 64v64h64v448h-64v64h192v-192h192v-64h64v-256h-64v-64h-192v64h128v256h-128v-256h-64v-64h-128z" />
    <glyph glyph-name="c" unicode="c" 
d="M64 64v64h-64v256h64v64h256v-64h64v-64h-128v64h-128v-256h128v64h128v-64h-64v-64h-256z" />
    <glyph glyph-name="d" unicode="d" 
d="M64 64v64h-64v256h64v64h192v128h-64v64h192v-512h64v-64h-128v64h-64v256h-128v-256h128v-64h-192z" />
    <glyph glyph-name="e" unicode="e" 
d="M256 320v64h-128v-64h128zM64 64v64h-64v256h64v64h256v-64h64v-128h-256v-128h128v64h128v-64h-64v-64h-256z" />
    <glyph glyph-name="f" unicode="f" 
d="M0 64v64h64v192h-64v64h64v192h64v64h192v-64h64v-64h-128v64h-64v-192h128v-64h-128v-192h64v-64h-256z" />
    <glyph glyph-name="g" unicode="g" 
d="M64 -64v64h-64v64h128v-64h128v128h-192v64h-64v192h64v64h192v-64h-128v-192h128v192h64v64h128v-64h-64v-384h-64v-64h-256z" />
    <glyph glyph-name="h" unicode="h" 
d="M320 64v320h-64v64h128v-64h64v-320h-128zM0 64v64h64v448h-64v64h192v-256h64v-64h-64v-256h-192z" />
    <glyph glyph-name="i" unicode="i" 
d="M64 64v64h128v256h-128v64h256v-320h128v-64h-384zM192 512v128h128v-128h-128z" />
    <glyph glyph-name="j" unicode="j" 
d="M64 -64v64h-64v128h128v-128h128v384h-192v64h320v-448h-64v-64h-256zM256 512v128h128v-128h-128z" />
    <glyph glyph-name="k" unicode="k" 
d="M0 64v64h64v448h-64v64h192v-320h64v64h64v64h128v-64h-64v-64h-64v-64h64v-64h64v-128h-128v128h-64v64h-64v-192h-192z" />
    <glyph glyph-name="l" unicode="l" 
d="M64 64v64h128v448h-128v64h256v-512h128v-64h-384z" />
    <glyph glyph-name="m" unicode="m" 
d="M0 64v384h384v-64h64v-320h-128v320h-64v-256h-64v256h-64v-320h-128z" />
    <glyph glyph-name="n" unicode="n" 
d="M0 64v384h320v-64h64v-320h-128v320h-128v-320h-128z" />
    <glyph glyph-name="o" unicode="o" 
d="M256 128v256h-128v-256h128zM64 64v64h-64v256h64v64h256v-64h64v-256h-64v-64h-256z" />
    <glyph glyph-name="p" unicode="p" 
d="M0 -64v64h64v384h-64v64h128v-64h64v-256h128v256h-128v64h192v-64h64v-256h-64v-64h-192v-64h64v-64h-256z" />
    <glyph glyph-name="q" unicode="q" 
d="M192 -64v64h64v64h-192v64h-64v256h64v64h192v-64h-128v-256h128v256h64v64h128v-64h-64v-384h64v-64h-256z" />
    <glyph glyph-name="r" unicode="r" 
d="M0 64v64h64v256h-64v64h192v-128h64v-64h-64v-128h64v-64h-256zM320 256v64h-64v128h128v-64h64v-128h-128z" />
    <glyph glyph-name="s" unicode="s" 
d="M64 64v64h-64v64h128v-64h128v64h-64v64h128v-64h64v-64h-64v-64h-256zM64 256v64h-64v64h64v64h256v-64h64v-64h-128v64h-128v-64h64v-64h-128z" />
    <glyph glyph-name="t" unicode="t" 
d="M128 64v64h-64v256h-64v64h64v64h64v64h64v-128h192v-64h-192v-256h64v64h192v-64h-64v-64h-256z" />
    <glyph glyph-name="u" unicode="u" 
d="M64 64v64h-64v320h128v-320h128v-64h-192zM320 64v64h-64v320h128v-320h64v-64h-128z" />
    <glyph glyph-name="v" unicode="v" 
d="M128 64v64h-64v64h-64v256h128v-256h128v256h128v-256h-64v-64h-64v-64h-128z" />
    <glyph glyph-name="w" unicode="w" 
d="M192 192v128h64v-128h-64zM64 64v128h-64v256h128v-256h64v-128h-128zM256 64v128h64v256h128v-256h-64v-128h-128z" />
    <glyph glyph-name="x" unicode="x" 
d="M0 64v64h64v64h64v128h-64v64h-64v64h128v-64h64v-64h64v64h64v64h128v-64h-64v-64h-64v-128h64v-64h64v-64h-128v64h-64v64h-64v-64h-64v-64h-128z" />
    <glyph glyph-name="y" unicode="y" 
d="M0 -64v64h192v64h64v64h-128v64h-64v256h128v-256h128v256h128v-256h-64v-128h-64v-64h-64v-64h-256z" />
    <glyph glyph-name="z" unicode="z" 
d="M0 64v128h64v64h128v-64h-64v-64h192v64h64v-128h-384zM192 256v64h64v64h-192v-64h-64v128h384v-128h-64v-64h-128z" />
    <glyph glyph-name="braceleft" unicode="{" 
d="M192 64v64h-64v128h-64v64h-64v64h64v64h64v128h64v64h192v-64h-128v-128h-64v-64h-64v-64h64v-64h64v-128h128v-64h-192z" />
    <glyph glyph-name="bar" unicode="|" 
d="M192 64v256h128v-256h-128zM192 384v256h128v-256h-128z" />
    <glyph glyph-name="braceright" unicode="}" 
d="M0 64v64h128v128h64v64h64v64h-64v64h-64v128h-128v64h192v-64h64v-128h64v-64h64v-64h-64v-64h-64v-128h-64v-64h-192z" />
    <glyph glyph-name="asciitilde" unicode="~" 
d="M0 448v128h64v64h192v-64h64v-64h64v128h128v-64h-64v-128h-192v64h-64v64h-64v-128h-128z" />
    <glyph glyph-name="quoteleft" unicode="&#x2018;" 
d="M64 384v64h64v192h128v-192h-64v-64h-128z" />
    <glyph glyph-name="quoteright" unicode="&#x2019;" 
d="M64 384v64h64v192h128v-192h-64v-64h-128z" />
    <glyph glyph-name="quotedblleft" unicode="&#x201c;" 
d="M128 384v64h-64v192h128v-256h-64zM320 384v256h128v-192h-64v-64h-64z" />
    <glyph glyph-name="quotedblright" unicode="&#x201d;" 
d="M128 384v64h-64v192h128v-256h-64zM320 384v256h128v-192h-64v-64h-64z" />
  </font>
</defs>
</svg>
